<svg width="326" height="255" viewBox="0 0 326 255" xmlns="http://www.w3.org/2000/svg"><title>Artboard</title><defs><linearGradient x1="50.001%" y1="101.753%" x2="50.001%" y2="-1.753%" id="a"><stop stop-color="#0080FF" offset="15.11%"/><stop stop-color="#00D688" offset="100%"/></linearGradient><linearGradient x1="0%" y1="50%" y2="50%" id="b"><stop stop-color="#FFF" stop-opacity=".2" offset="0%"/><stop stop-color="#FFF" stop-opacity=".248" offset="5.97%"/><stop stop-color="#FFF" offset="100%"/></linearGradient><linearGradient x1="50%" y1="99.138%" x2="50%" y2="24.706%" id="c"><stop stop-color="#0069FF" stop-opacity=".5" offset="0%"/><stop stop-color="#0069FF" stop-opacity=".3" offset="21.53%"/><stop stop-color="#0069FF" stop-opacity=".05" offset="100%"/></linearGradient><linearGradient x1="-.04%" y1="6.53%" x2="-.04%" y2="6.53%" id="d"><stop stop-color="#0080FF" offset="15.11%"/><stop stop-color="#00D688" offset="100%"/></linearGradient><linearGradient x1="-.02%" y1="6.48%" x2="-.02%" y2="6.48%" id="e"><stop stop-color="#0080FF" offset="15.11%"/><stop stop-color="#00D688" offset="100%"/></linearGradient><linearGradient x1="-1.26%" y1="49.858%" x2="101.259%" y2="49.858%" id="f"><stop stop-color="#0080FF" offset="15.11%"/><stop stop-color="#00D688" offset="100%"/></linearGradient><linearGradient x1="0%" y1="50%" x2="99.999%" y2="50%" id="g"><stop stop-color="#0069FF" stop-opacity=".5" offset="0%"/><stop stop-color="#0069FF" stop-opacity=".3" offset="21.53%"/><stop stop-color="#0069FF" stop-opacity=".2" offset="100%"/></linearGradient><linearGradient x1=".001%" y1="50%" x2="100.001%" y2="50%" id="h"><stop stop-color="#0069FF" stop-opacity=".5" offset="0%"/><stop stop-color="#0069FF" stop-opacity=".3" offset="21.53%"/><stop stop-color="#0069FF" stop-opacity=".05" offset="100%"/></linearGradient><linearGradient x1="50.001%" y1="101.403%" x2="50.001%" y2="-1.402%" id="i"><stop stop-color="#0080FF" offset="15.11%"/><stop stop-color="#00D688" offset="100%"/></linearGradient><linearGradient x1="-.006%" y1="50.001%" y2="50.001%" id="j"><stop stop-color="#0080FF" offset="15.11%"/><stop stop-color="#00D688" offset="100%"/></linearGradient><linearGradient x1="-12.903%" y1="50.001%" x2="201.535%" y2="50.001%" id="k"><stop stop-color="#0080FF" offset="15.11%"/><stop stop-color="#00D688" offset="100%"/></linearGradient><linearGradient x1="-4969.98%" y1="50%" x2="4049.07%" y2="50%" id="l"><stop stop-color="#0080FF" offset="15.11%"/><stop stop-color="#00D688" offset="100%"/></linearGradient><linearGradient x1="-164.356%" y1="49.998%" x2="109.705%" y2="49.998%" id="m"><stop stop-color="#0080FF" offset="15.11%"/><stop stop-color="#00D688" offset="100%"/></linearGradient><linearGradient x1="0%" y1="50%" y2="50%" id="n"><stop stop-color="#FFF" stop-opacity=".2" offset="0%"/><stop stop-color="#FFF" stop-opacity=".248" offset="5.97%"/><stop stop-color="#FFF" offset="100%"/></linearGradient><linearGradient x1="50%" y1="99.138%" x2="50%" y2="24.706%" id="o"><stop stop-color="#0069FF" stop-opacity=".5" offset="0%"/><stop stop-color="#0069FF" stop-opacity=".3" offset="21.53%"/><stop stop-color="#0069FF" stop-opacity=".05" offset="100%"/></linearGradient><linearGradient x1="-.05%" y1="6.55%" x2="-.05%" y2="6.55%" id="p"><stop stop-color="#0080FF" offset="15.11%"/><stop stop-color="#00D688" offset="100%"/></linearGradient><linearGradient x1="-.02%" y1="6.49%" x2="-.02%" y2="6.49%" id="q"><stop stop-color="#0080FF" offset="15.11%"/><stop stop-color="#00D688" offset="100%"/></linearGradient><linearGradient x1="50%" y1="100.989%" x2="50%" y2="-1.272%" id="r"><stop stop-color="#0080FF" offset="15.11%"/><stop stop-color="#00D688" offset="100%"/></linearGradient></defs><g transform="translate(1 2)" fill="none" fill-rule="evenodd"><g transform="translate(252)"><circle fill="#FFF" fill-rule="nonzero" cx="35.731" cy="36.108" r="35.649"/><circle stroke="url(#a)" stroke-width="2.5" stroke-linecap="round" cx="35.731" cy="36.108" r="35.649"/></g><path d="M.62 101.349c0-29.73 39.705-61.382 39.705-61.382s39.672 32.663 39.672 61.382c0 21.939-17.766 39.705-39.705 39.705S.62 123.255.62 101.349z" fill="#FFF" fill-rule="nonzero"/><path d="M2.673 62.284c0-28.1 37.488-57.992 37.488-57.992s37.488 30.871 37.488 57.992c0 20.7-16.788 37.488-37.488 37.488S2.673 82.984 2.673 62.284z" fill="url(#b)" fill-rule="nonzero" transform="translate(0 39)"/><path d="M2.673 62.284c0-28.1 37.488-57.992 37.488-57.992s37.488 30.871 37.488 57.992c0 20.7-16.788 37.488-37.488 37.488S2.673 82.984 2.673 62.284z" fill="url(#c)" fill-rule="nonzero" opacity=".5" transform="translate(0 39)"/><path d="M73.803 63.001v.13-.13z" fill="url(#d)" fill-rule="nonzero" transform="translate(0 39)"/><path d="M6.52 63.034v.065-.13.065z" fill="url(#e)" fill-rule="nonzero" transform="translate(0 39)"/><path d="M40.28 46.562c3.611 3.256 9.849 9.19 16.059 16.55 12.206 14.468 18.658 27.69 18.658 38.237 0 19.136-15.568 34.705-34.705 34.705-19.118 0-34.672-15.568-34.672-34.705 0-10.915 6.413-24.216 18.546-38.466C30.367 55.6 36.641 49.762 40.28 46.562zm.044-6.595S.619 71.62.619 101.349c0 21.906 17.733 39.705 39.672 39.705 21.939 0 39.705-17.766 39.705-39.705 0-28.719-39.672-61.382-39.672-61.382z" fill="#FFF" fill-rule="nonzero"/><path d="M.62 62.349C.62 32.619 40.325.967 40.325.967S79.997 33.63 79.997 62.349c0 21.939-17.766 39.705-39.705 39.705S.62 84.255.62 62.349z" stroke="url(#f)" stroke-width="2" stroke-linecap="round" transform="translate(0 39)"/><path d="M300.158 89.548c-6.968-4.024-17.885-4.024-24.853 0-3.609 2.084-5.597 4.947-5.597 8.062 0 2.443 1.238 4.725 3.506 6.604l-47.754 27.571H101.752L51.93 160.549c-6.981-3.582-17.339-3.45-24.048.421v.001c-3.61 2.084-5.598 4.947-5.598 8.062 0 3.115 1.989 5.979 5.598 8.062 3.484 2.013 7.954 3.018 12.426 3.018 4.471 0 8.943-1.005 12.427-3.016 3.609-2.084 5.598-4.947 5.598-8.062 0-2.442-1.237-4.725-3.505-6.604l47.749-27.568h121.756l.003 68.997-48.699 28.116c-6.981-3.584-17.337-3.45-24.044.423-3.609 2.085-5.597 4.947-5.597 8.062 0 3.116 1.987 5.979 5.597 8.062 3.484 2.013 7.955 3.019 12.427 3.018 4.471 0 8.942-1.005 12.427-3.017 3.61-2.085 5.598-4.947 5.598-8.064 0-2.443-1.238-4.725-3.508-6.604l48.878-28.22-.004-71.424 48.7-28.117c3.355 1.723 7.483 2.595 11.621 2.595 4.471 0 8.942-1.006 12.427-3.017 3.61-2.084 5.598-4.947 5.598-8.063-.002-3.114-1.989-5.978-5.599-8.062zM55.254 169.035c0 1.969-1.442 3.886-4.059 5.397-6.004 3.464-15.771 3.466-21.775 0-2.617-1.512-4.059-3.429-4.059-5.398 0-1.969 1.442-3.886 4.059-5.398v.001c5.211-3.011 13.257-3.403 19.218-1.188.905.337 1.766.729 2.557 1.186.261.151.501.308.738.466 2.144 1.432 3.321 3.16 3.321 4.934zm123.712 71.426c0 1.971-1.442 3.887-4.059 5.398-6.004 3.465-15.771 3.466-21.776-.001-2.617-1.51-4.058-3.426-4.058-5.397 0-1.969 1.44-3.886 4.058-5.396v-.001c3.002-1.732 6.944-2.599 10.888-2.599 2.902 0 5.799.473 8.326 1.412.907.337 1.769.73 2.562 1.189.259.15.498.306.734.463 2.146 1.429 3.325 3.158 3.325 4.932zm119.653-137.453c-5.211 3.008-13.257 3.401-19.217 1.187a16.94 16.94 0 0 1-2.559-1.187c-.26-.15-.499-.307-.736-.465-2.144-1.431-3.322-3.158-3.322-4.933 0-1.969 1.44-3.886 4.058-5.397 6.004-3.466 15.771-3.466 21.776 0 2.617 1.511 4.059 3.428 4.059 5.397-.001 1.971-1.442 3.887-4.059 5.398z" fill="url(#g)" fill-rule="nonzero"/><g transform="translate(252)"><circle fill="url(#h)" fill-rule="nonzero" opacity=".5" cx="35.731" cy="36.108" r="35.649"/><path d="M35.731 5.459c16.9 0 30.649 13.749 30.649 30.649S52.631 66.757 35.731 66.757 5.082 53.008 5.082 36.108 18.832 5.459 35.731 5.459zm0-5C16.043.459.082 16.42.082 36.108c0 19.688 15.961 35.649 35.649 35.649 19.688 0 35.649-15.961 35.649-35.649C71.38 16.42 55.42.459 35.731.459z" fill="#FFF" fill-rule="nonzero"/><circle stroke="url(#i)" stroke-width="2" stroke-linecap="round" cx="35.731" cy="36.108" r="35.649"/><path d="M48.06 42.398l.034-3.484a5.255 5.255 0 0 0-5.249-5.249h-6.173l-.024-5.676a4.37 4.37 0 0 0-.964-8.632 4.37 4.37 0 1 0-.94 8.639l.024 5.668H28.7a5.254 5.254 0 0 0-5.249 5.243l-.032 3.489c-2.46.448-4.333 2.596-4.333 5.183a5.285 5.285 0 0 0 5.279 5.279 5.285 5.285 0 0 0 5.279-5.279c0-2.583-1.867-4.729-4.32-5.182l.032-3.484c0-1.844 1.5-3.344 3.344-3.344h14.145c1.843 0 3.344 1.5 3.344 3.338l-.034 3.489c-2.46.448-4.334 2.596-4.334 5.183a5.285 5.285 0 0 0 5.279 5.279 5.285 5.285 0 0 0 5.279-5.279c0-2.581-1.866-4.727-4.319-5.181zM27.737 47.58a3.378 3.378 0 0 1-3.374 3.374 3.378 3.378 0 0 1-3.374-3.374 3.378 3.378 0 0 1 3.374-3.374 3.378 3.378 0 0 1 3.374 3.374zM47.1 50.954a3.378 3.378 0 0 1-3.374-3.374 3.378 3.378 0 0 1 3.374-3.374 3.378 3.378 0 0 1 3.374 3.374 3.378 3.378 0 0 1-3.374 3.374z" fill="url(#j)" fill-rule="nonzero"/></g><g fill-rule="nonzero"><path d="M5.533 120.669l.866-.5a1 1 0 1 0-1-1.732l-.866.5a1 1 0 1 0 1 1.732zm4.427-2.556l.866-.5a1 1 0 1 0-1-1.732l-.866.5a1 1 0 1 0 1 1.732zm4.427-2.556l.866-.5a1 1 0 1 0-1-1.732l-.866.5a1 1 0 1 0 1 1.732zM18.815 113l.866-.5a1 1 0 1 0-1-1.732l-.866.5a1 1 0 1 0 1 1.732zm4.427-2.556l.866-.5a1 1 0 0 0-1-1.732l-.866.5a1 1 0 0 0 1 1.732zm4.427-2.556l.866-.5a1 1 0 0 0-1-1.732l-.866.5a1 1 0 0 0 1 1.732zm4.427-2.556l.866-.5a1 1 0 1 0-1-1.732l-.866.5a1 1 0 1 0 1 1.732zm4.427-2.556l.866-.5a1 1 0 1 0-1-1.733l-.866.5a1 1 0 1 0 1 1.733zm4.428-2.557l.866-.5a1 1 0 0 0-1-1.732l-.866.5a1 1 0 0 0 1 1.732zm4.427-2.556l.866-.5a1 1 0 0 0-1-1.732l-.866.5a1 1 0 0 0 1 1.732z" fill="url(#k)" transform="translate(193 120)"/><path d="M50.306 89.14v-1a1 1 0 0 0-2 0v1a1 1 0 0 0 2 0zm0-5.102v-1a1 1 0 0 0-2 0v1a1 1 0 1 0 2 0zm0-5.102v-1a1 1 0 1 0-2 0v1a1 1 0 0 0 2 0zm0-5.101v-1a1 1 0 0 0-2 0v1a1 1 0 1 0 2 0zm0-5.102v-1a1 1 0 0 0-2 0v1a1 1 0 1 0 2 0zm0-5.102v-1a1 1 0 1 0-2 0v1a1 1 0 0 0 2 0zm0-5.102v-1a1 1 0 0 0-2 0v1a1 1 0 1 0 2 0zm0-5.102v-1a1 1 0 0 0-2 0v1a1 1 0 1 0 2 0zm0-5.101v-1a1 1 0 1 0-2 0v1a1 1 0 0 0 2 0zm0-5.102v-1a1 1 0 0 0-2 0v1a1 1 0 1 0 2 0zm0-5.102v-1a1 1 0 1 0-2 0v1a1 1 0 0 0 2 0zm0-5.102v-1a1 1 0 1 0-2 0v1a1 1 0 0 0 2 0zm0-5.102v-1a1 1 0 0 0-2 0v1a1 1 0 1 0 2 0z" fill="url(#l)" transform="translate(193 120)"/><path d="M54.194 21.15l.866-.5a1 1 0 1 0-1-1.732l-.866.5a1 1 0 1 0 1 1.732zm4.388-2.533l.866-.5a1 1 0 1 0-1-1.732l-.866.5a1 1 0 0 0 1 1.732zm4.388-2.534l.866-.5a1 1 0 1 0-1-1.732l-.866.5a1 1 0 0 0 1 1.732zm4.388-2.533l.866-.5a1 1 0 0 0-1-1.732l-.866.5a1 1 0 1 0 1 1.732zm4.388-2.533l.866-.5a1 1 0 0 0-1-1.732l-.866.5a1 1 0 0 0 1 1.732zm4.387-2.534l.866-.5a1 1 0 0 0-1-1.732l-.866.5a1 1 0 1 0 1 1.732zm4.388-2.533l.866-.5a1 1 0 0 0-1-1.732l-.866.5a1 1 0 0 0 1 1.732zm4.388-2.533l.866-.5a1 1 0 1 0-1-1.732l-.866.5a1 1 0 1 0 1 1.732z" fill="url(#m)" transform="translate(193 120)"/></g><path d="M124.331 172.776c0-29.73 39.705-61.383 39.705-61.383s39.672 32.663 39.672 61.383c0 21.939-17.766 39.705-39.705 39.705-21.938 0-39.672-17.799-39.672-39.705z" fill="#FFF" fill-rule="nonzero"/><path d="M2.385 61.711c0-28.1 37.488-57.992 37.488-57.992S77.361 34.59 77.361 61.711c0 20.7-16.788 37.488-37.488 37.488S2.385 82.411 2.385 61.711z" fill="url(#n)" fill-rule="nonzero" transform="translate(124 111)"/><path d="M2.385 61.711c0-28.1 37.488-57.992 37.488-57.992S77.361 34.59 77.361 61.711c0 20.7-16.788 37.488-37.488 37.488S2.385 82.411 2.385 61.711z" fill="url(#o)" fill-rule="nonzero" opacity=".5" transform="translate(124 111)"/><path d="M73.515 62.428v.13-.13z" fill="url(#p)" fill-rule="nonzero" transform="translate(124 111)"/><path d="M6.232 62.461v.065-.13.065z" fill="url(#q)" fill-rule="nonzero" transform="translate(124 111)"/><path d="M163.991 117.991c3.637 3.281 9.936 9.274 16.162 16.669 12.139 14.42 18.556 27.6 18.556 38.116 0 19.136-15.568 34.705-34.705 34.705-19.118 0-34.672-15.568-34.672-34.705 0-10.915 6.413-24.216 18.546-38.466 6.2-7.281 12.473-13.119 16.113-16.319zm.045-6.597s-39.705 31.653-39.705 61.383c0 21.906 17.733 39.705 39.672 39.705 21.939 0 39.705-17.766 39.705-39.705 0-28.72-39.672-61.383-39.672-61.383z" fill="#FFF" fill-rule="nonzero"/><path d="M.331 61.776C.331 32.046 40.036.393 40.036.393s39.672 32.663 39.672 61.383c0 21.939-17.766 39.705-39.705 39.705-21.938 0-39.672-17.799-39.672-39.705z" stroke="url(#r)" stroke-width="2" stroke-linecap="round" transform="translate(124 111)"/><g transform="translate(26 88)" fill-rule="nonzero" fill="#0080FF"><circle cx="14.308" cy="24.041" r="4.654"/><circle cx="14.308" cy="5.602" r="4.654"/><circle cx="23.527" cy="14.822" r="4.654"/><circle cx="5.089" cy="14.822" r="4.654"/></g><g transform="translate(150 169)" fill-rule="nonzero" fill="#0080FF"><circle cx="14.02" cy="14.468" r="4.654"/><circle cx="23.239" cy="5.249" r="4.654"/><circle cx="4.8" cy="5.249" r="4.654"/></g><circle fill="#0080FF" fill-rule="nonzero" cx="225.873" cy="182.762" r="4.654"/></g></svg>